<?xml version="1.0" encoding="utf-8"?>
<!-- Generator: Adobe Illustrator 22.1.0, SVG Export Plug-In . SVG Version: 6.00 Build 0)  -->
<svg version="1.1" id="Logos" xmlns="http://www.w3.org/2000/svg" xmlns:xlink="http://www.w3.org/1999/xlink" x="0px" y="0px"
	 viewBox="0 0 235.6 27.3" style="enable-background:new 0 0 235.6 27.3;" xml:space="preserve">
<style type="text/css">
	.st0{fill:#FFFFFF;}
	.st1{fill:#CC0000;}
	.st2{fill:#EE0000;}
	.st3{fill:#A30000;}
</style>
<title>Logo-Red_Hat-Product Logo copy 2-RGB</title>
<rect x="72.4" y="5.2" class="st0" width="0.9" height="17.3"/>
<path class="st0" d="M23.1,22c-1.9,0-3.4-1.5-3.4-3.4s1.5-3.4,3.4-3.4s3.4,1.5,3.4,3.4S25,22,23.1,22z M23.1,16.2
	c-1.3,0-2.4,1.1-2.4,2.5s1,2.5,2.4,2.5c1.3,0,2.4-1.1,2.4-2.5S24.4,16.2,23.1,16.2z"/>
<path class="st0" d="M27.4,17.2h0.9v0.4c0.4-0.3,0.9-0.5,1.4-0.5c1.3,0,2.4,1.1,2.4,2.4c0,1.4-1,2.4-2.4,2.4c-0.5,0-1-0.2-1.4-0.5
	v2.3h-0.9V17.2z M28.3,18.5v2.2c0.3,0.4,0.8,0.6,1.3,0.5c0.9,0,1.6-0.7,1.6-1.6c0-0.9-0.7-1.6-1.6-1.6
	C29.1,17.9,28.6,18.1,28.3,18.5L28.3,18.5z"/>
<path class="st0" d="M35.2,17.1c1.3,0,2.3,1.1,2.3,2.5v0.3h-3.7c0.1,0.8,0.8,1.4,1.6,1.4c0.4,0,0.9-0.1,1.2-0.4l0.6,0.6
	C36.6,21.8,36,22,35.3,22c-1.4,0-2.5-1.1-2.5-2.5C32.8,18.2,33.9,17.1,35.2,17.1z M33.8,19.1h2.8c-0.1-0.7-0.7-1.3-1.4-1.3
	C34.4,17.9,33.9,18.4,33.8,19.1L33.8,19.1z"/>
<path class="st0" d="M38.3,17.2h0.9v0.5c0.4-0.4,0.9-0.6,1.4-0.6c1.1,0,1.8,0.8,1.8,1.8v3h-0.9v-2.8c0-0.7-0.4-1.2-1.2-1.2
	c-0.5,0-0.9,0.2-1.2,0.6v3.4h-0.9V17.2z"/>
<path class="st0" d="M43.7,20.1c0.7,0.7,1.4,1,2.2,1c0.9,0,1.6-0.4,1.6-1.1c0-0.6-0.4-0.9-1.3-1l-1.1-0.2c-1.2-0.2-1.8-0.8-1.8-1.7
	c0-1.1,0.9-1.9,2.4-1.9c0.9,0,1.9,0.3,2.6,0.9l-0.5,0.7c-0.7-0.5-1.4-0.8-2.1-0.8c-0.8,0-1.4,0.4-1.4,1c0,0.5,0.3,0.8,1.2,0.9l1,0.2
	c1.4,0.2,2,0.8,2,1.8c0,1.2-1,2-2.6,2c-1,0-2.1-0.4-2.8-1.2L43.7,20.1z"/>
<path class="st0" d="M52.6,19.1c0-0.7-0.4-1.2-1.2-1.2c-0.5,0-0.9,0.2-1.2,0.6v3.4h-0.9v-6.5l0.9-0.2v2.5c0.4-0.4,0.9-0.6,1.4-0.6
	c1.1,0,1.8,0.8,1.8,1.8v3h-0.9L52.6,19.1z"/>
<path class="st0" d="M54.5,15.8c0-0.3,0.3-0.6,0.6-0.6c0.3,0,0.6,0.3,0.6,0.6c0,0.3-0.3,0.5-0.6,0.6C54.7,16.4,54.5,16.2,54.5,15.8z
	 M55.5,21.9h-0.9v-4.7h0.9V21.9z"/>
<path class="st0" d="M57.3,17.2v-0.7c0-1,0.5-1.5,1.6-1.5c0.2,0,0.5,0,0.7,0.1v0.8c-0.2-0.1-0.4-0.1-0.6-0.1c-0.5,0-0.8,0.2-0.8,0.7
	v0.7h1.4V18h-1.4v3.9h-0.9v-3.9h-1.1v-0.8H57.3z"/>
<path class="st0" d="M61,18h-1v-0.8h1V16l0.9-0.2v1.4h1.4V18h-1.4v2.6c0,0.5,0.2,0.7,0.7,0.7c0.2,0,0.5,0,0.7-0.1v0.8
	C63,21.9,62.7,22,62.4,22c-0.9,0-1.4-0.4-1.4-1.2L61,18z"/>
<path class="st0" d="M51.5,10.7c0,1.1,0.6,1.6,1.8,1.6c0.4,0,0.7-0.1,1.1-0.1v-1.2C54.1,11,53.9,11,53.7,11c-0.5,0-0.7-0.1-0.7-0.6
	V8.5h1.4V7.3H53V5.7L51.5,6v1.3h-1v1.3h1V10.7z M46.7,10.7c0-0.3,0.3-0.5,0.8-0.5c0.3,0,0.6,0,0.9,0.1V11c-0.3,0.2-0.6,0.2-0.9,0.2
	C47,11.2,46.7,11.1,46.7,10.7 M47.2,12.3c0.5,0,1-0.1,1.4-0.4v0.3h1.5V9c0-1.2-0.8-1.9-2.2-1.9c-0.8,0-1.5,0.2-2.3,0.5l0.6,1.1
	c0.6-0.2,1.1-0.4,1.5-0.4c0.6,0,0.9,0.2,0.9,0.7v0.2c-0.4-0.1-0.7-0.1-1.1-0.1c-1.3,0-2,0.5-2,1.5C45.4,11.6,46.1,12.3,47.2,12.3
	 M39,12.2h1.6V9.7h2.7v2.6h1.6V5.7h-1.6v2.5h-2.7V5.7H39L39,12.2z M32.8,9.7c0-0.7,0.6-1.3,1.3-1.3c0.4,0,0.8,0.1,1.1,0.4v1.7
	c-0.3,0.3-0.7,0.4-1.1,0.4C33.4,11,32.8,10.5,32.8,9.7 M35.2,12.2h1.5V5.3l-1.5,0.3v1.9c-0.4-0.2-0.8-0.3-1.3-0.3
	c-1.4,0-2.6,1.1-2.6,2.5c0,1.4,1.1,2.5,2.5,2.6c0,0,0,0,0,0c0.5,0,0.9-0.1,1.3-0.4L35.2,12.2z M28.3,8.4c0.5,0,0.9,0.3,1,0.8h-2.1
	C27.4,8.7,27.8,8.4,28.3,8.4 M25.7,9.8c0,1.4,1.2,2.6,2.7,2.6c0.8,0,1.4-0.2,2.1-0.8l-1-0.9c-0.2,0.2-0.6,0.4-1,0.4
	c-0.5,0-1-0.3-1.2-0.8h3.5V9.9c0-1.6-1.1-2.7-2.5-2.7C26.9,7.2,25.7,8.3,25.7,9.8C25.7,9.7,25.7,9.7,25.7,9.8 M23.1,7
	c0.5,0,0.8,0.3,0.8,0.7c0,0.4-0.3,0.7-0.8,0.7h-1.6V7H23.1z M19.9,12.2h1.6V9.8h1.2l1.2,2.4h1.8l-1.4-2.6c0.8-0.3,1.2-1,1.2-1.8
	c0-1.2-0.9-2.1-2.3-2.1h-3.4L19.9,12.2z"/>
<path class="st1" d="M6.2,8.2L3.9,9c0,0.4,0.1,0.8,0.2,1.1l2.3-0.8C6.2,9,6.2,8.6,6.2,8.2"/>
<path class="st1" d="M16.8,5.5c-0.2-0.3-0.4-0.7-0.6-1l-2.4,0.9c0.3,0.3,0.5,0.6,0.7,0.9L16.8,5.5z"/>
<path class="st2" d="M11.5,4.9c0.5,0.2,0.9,0.5,1.3,0.9l2.4-0.9C13,1.9,8.8,1.2,5.7,3.3C3.8,4.7,2.7,7,2.9,9.4l2.4-0.9
	C5.4,6.1,7.5,4.3,10,4.5C10.5,4.5,11,4.6,11.5,4.9"/>
<path class="st2" d="M4.2,10.1l-2.3,0.8c0.2,0.8,0.6,1.6,1.1,2.3l2.4-0.9C4.8,11.8,4.4,11,4.2,10.1"/>
<path class="st2" d="M14.1,9.2c0,0.5-0.2,1-0.4,1.5c-1,2.2-3.7,3.2-5.9,2.1c-0.5-0.2-0.9-0.5-1.3-0.9l-2.4,0.9
	c2.2,3.1,6.4,3.8,9.5,1.6c1-0.7,1.7-1.6,2.2-2.7c0.5-1.1,0.7-2.2,0.6-3.4L14.1,9.2z"/>
<path class="st2" d="M14.6,6.3l-2.3,0.8c0.4,0.8,0.6,1.6,0.6,2.5l2.4-0.9C15.2,7.9,15,7.1,14.6,6.3"/>
<path class="st3" d="M6.2,8.7c0-0.2,0-0.3,0-0.5L3.9,9c0,0.2,0,0.3,0.1,0.5L6.2,8.7z"/>
<path class="st3" d="M16.4,4.9c-0.1-0.1-0.2-0.2-0.2-0.4l-2.4,0.9c0.1,0.1,0.2,0.2,0.3,0.3L16.4,4.9z"/>
<path class="st1" d="M4.1,12.8c0.2,0.3,0.4,0.5,0.6,0.7l2.6-0.9C7,12.4,6.7,12.2,6.5,12L4.1,12.8z M16.4,8.4l-2.4,0.9
	c0,0.3-0.1,0.7-0.2,1l2.6-0.9C16.5,9,16.5,8.7,16.4,8.4"/>
<g>
	<path class="st0" d="M84.7,16.7c0.4,0,0.9-0.1,1.3-0.3c0.4-0.2,0.7-0.4,1-0.7l0.5,0.5c-0.4,0.4-0.8,0.7-1.3,0.9
		c-0.5,0.2-1,0.3-1.5,0.3c-0.5,0-1-0.1-1.5-0.3s-0.8-0.5-1.2-0.8c-0.3-0.3-0.6-0.7-0.8-1.2c-0.2-0.4-0.3-0.9-0.3-1.4
		c0-0.5,0.1-1,0.3-1.4c0.2-0.5,0.4-0.8,0.8-1.2c0.3-0.3,0.7-0.6,1.2-0.8c0.5-0.2,0.9-0.3,1.4-0.3c0.5,0,1.1,0.1,1.6,0.3
		c0.5,0.2,0.9,0.5,1.3,0.9L87,11.8c-0.3-0.3-0.6-0.6-1-0.7c-0.4-0.2-0.8-0.3-1.3-0.3c-0.4,0-0.8,0.1-1.1,0.2
		c-0.4,0.2-0.7,0.4-0.9,0.6c-0.3,0.3-0.5,0.6-0.6,0.9c-0.1,0.4-0.2,0.7-0.2,1.2c0,0.4,0.1,0.8,0.2,1.2c0.1,0.4,0.4,0.7,0.6,0.9
		c0.3,0.3,0.6,0.5,0.9,0.6C83.9,16.6,84.3,16.7,84.7,16.7z"/>
	<path class="st0" d="M89.3,10.1v7.3h-0.8v-7.1L89.3,10.1z"/>
	<path class="st0" d="M91.3,12.2v3.1c0,0.4,0.1,0.8,0.4,1.1c0.3,0.3,0.6,0.4,1,0.4c0.3,0,0.6-0.1,0.8-0.2c0.2-0.1,0.4-0.3,0.6-0.6
		v-3.7h0.8v5.1h-0.8v-0.6c-0.2,0.2-0.4,0.4-0.7,0.5c-0.3,0.1-0.6,0.2-0.9,0.2c-0.6,0-1.1-0.2-1.4-0.5c-0.4-0.4-0.5-0.8-0.5-1.4v-3.2
		H91.3z"/>
	<path class="st0" d="M95.6,16.6l0.5-0.5c0.2,0.2,0.5,0.4,0.8,0.5c0.3,0.1,0.6,0.2,0.9,0.2c0.4,0,0.8-0.1,1-0.3
		c0.2-0.2,0.4-0.4,0.4-0.6c0-0.2-0.1-0.4-0.2-0.5c-0.2-0.1-0.4-0.2-0.7-0.3L97.2,15c-0.5-0.1-0.9-0.2-1.1-0.4
		c-0.3-0.2-0.4-0.5-0.4-0.9c0-0.4,0.2-0.8,0.5-1.1c0.4-0.3,0.8-0.4,1.4-0.4c0.4,0,0.7,0.1,1,0.2c0.3,0.1,0.6,0.3,1,0.5l-0.4,0.5
		c-0.3-0.2-0.5-0.3-0.8-0.4c-0.3-0.1-0.6-0.1-0.8-0.1c-0.3,0-0.6,0.1-0.8,0.2c-0.2,0.2-0.3,0.4-0.3,0.6c0,0.2,0.1,0.4,0.2,0.5
		c0.1,0.1,0.4,0.2,0.7,0.2l0.9,0.1c0.5,0.1,0.9,0.2,1.1,0.5c0.3,0.2,0.4,0.5,0.4,0.9c0,0.4-0.2,0.8-0.6,1.1
		c-0.4,0.3-0.9,0.5-1.5,0.5c-0.4,0-0.8-0.1-1.2-0.2C96.2,17.1,95.9,16.9,95.6,16.6z"/>
	<path class="st0" d="M101.2,16.2v-3.3h-1.1v-0.6h1.1V11l0.7-0.2v1.5h1.5v0.6h-1.5V16c0,0.3,0.1,0.5,0.2,0.6
		c0.1,0.1,0.3,0.2,0.6,0.2c0.1,0,0.3,0,0.4,0s0.2-0.1,0.4-0.1v0.7c-0.1,0-0.3,0.1-0.4,0.1c-0.2,0-0.3,0-0.5,0c-0.4,0-0.8-0.1-1-0.3
		C101.3,16.9,101.2,16.6,101.2,16.2z"/>
	<path class="st0" d="M103.8,14.8c0-0.4,0.1-0.7,0.2-1c0.1-0.3,0.3-0.6,0.5-0.8c0.2-0.2,0.5-0.4,0.8-0.6c0.3-0.1,0.6-0.2,1-0.2
		c0.3,0,0.7,0.1,0.9,0.2c0.3,0.1,0.5,0.3,0.8,0.6c0.2,0.2,0.4,0.5,0.5,0.8c0.1,0.3,0.2,0.7,0.2,1V15h-4.2c0.1,0.5,0.3,0.9,0.6,1.2
		c0.4,0.3,0.8,0.5,1.3,0.5c0.3,0,0.5,0,0.8-0.1c0.3-0.1,0.5-0.2,0.6-0.3l0.5,0.5c-0.3,0.2-0.6,0.4-0.9,0.5c-0.3,0.1-0.6,0.2-1,0.2
		c-0.4,0-0.7-0.1-1-0.2c-0.3-0.1-0.6-0.3-0.8-0.6c-0.2-0.2-0.4-0.5-0.6-0.8C103.9,15.5,103.8,15.2,103.8,14.8z M106.3,12.8
		c-0.4,0-0.8,0.2-1.1,0.5c-0.3,0.3-0.5,0.7-0.6,1.1h3.4c-0.1-0.4-0.3-0.8-0.6-1.1C107.1,13,106.7,12.8,106.3,12.8z"/>
	<path class="st0" d="M109.8,17.3v-5.1h0.8v0.7c0.2-0.3,0.4-0.5,0.6-0.6c0.3-0.1,0.5-0.2,0.8-0.2c0.1,0,0.2,0,0.3,0
		c0.1,0,0.1,0,0.2,0.1v0.7c-0.1,0-0.1,0-0.2-0.1c-0.1,0-0.2,0-0.3,0c-0.3,0-0.5,0.1-0.8,0.2c-0.2,0.2-0.4,0.4-0.6,0.8v3.5H109.8z"/>
	<path class="st0" d="M114.9,17.3l3-7.1h0.9l2.9,7.1h-0.9l-0.9-2.2h-3.3l-0.9,2.2H114.9z M116.9,14.4h2.8l-1.4-3.5L116.9,14.4z"/>
	<path class="st0" d="M122.4,19.4v-7.2h0.7v0.5c0.2-0.2,0.5-0.4,0.8-0.5s0.6-0.2,0.9-0.2c0.4,0,0.7,0.1,1,0.2
		c0.3,0.1,0.6,0.3,0.8,0.6c0.2,0.2,0.4,0.5,0.5,0.8c0.1,0.3,0.2,0.7,0.2,1c0,0.4-0.1,0.7-0.2,1c-0.1,0.3-0.3,0.6-0.5,0.8
		c-0.2,0.2-0.5,0.4-0.8,0.6c-0.3,0.1-0.7,0.2-1,0.2c-0.3,0-0.6-0.1-0.9-0.2c-0.3-0.1-0.5-0.2-0.8-0.4v2.6H122.4z M124.7,12.8
		c-0.3,0-0.6,0.1-0.9,0.2c-0.3,0.1-0.5,0.3-0.7,0.5v2.5c0.2,0.2,0.4,0.4,0.7,0.5c0.3,0.1,0.6,0.2,0.9,0.2c0.3,0,0.5-0.1,0.8-0.2
		c0.2-0.1,0.4-0.2,0.6-0.4c0.2-0.2,0.3-0.4,0.4-0.6c0.1-0.2,0.1-0.5,0.1-0.8c0-0.3,0-0.5-0.1-0.8c-0.1-0.2-0.2-0.5-0.4-0.6
		c-0.2-0.2-0.4-0.3-0.6-0.4C125.2,12.9,125,12.8,124.7,12.8z"/>
	<path class="st0" d="M128.4,19.4v-7.2h0.7v0.5c0.2-0.2,0.5-0.4,0.8-0.5s0.6-0.2,0.9-0.2c0.4,0,0.7,0.1,1,0.2
		c0.3,0.1,0.6,0.3,0.8,0.6c0.2,0.2,0.4,0.5,0.5,0.8c0.1,0.3,0.2,0.7,0.2,1c0,0.4-0.1,0.7-0.2,1c-0.1,0.3-0.3,0.6-0.5,0.8
		c-0.2,0.2-0.5,0.4-0.8,0.6c-0.3,0.1-0.7,0.2-1,0.2c-0.3,0-0.6-0.1-0.9-0.2c-0.3-0.1-0.5-0.2-0.8-0.4v2.6H128.4z M130.7,12.8
		c-0.3,0-0.6,0.1-0.9,0.2c-0.3,0.1-0.5,0.3-0.7,0.5v2.5c0.2,0.2,0.4,0.4,0.7,0.5c0.3,0.1,0.6,0.2,0.9,0.2c0.3,0,0.5-0.1,0.8-0.2
		c0.2-0.1,0.4-0.2,0.6-0.4c0.2-0.2,0.3-0.4,0.4-0.6c0.1-0.2,0.1-0.5,0.1-0.8c0-0.3,0-0.5-0.1-0.8c-0.1-0.2-0.2-0.5-0.4-0.6
		c-0.2-0.2-0.4-0.3-0.6-0.4C131.2,12.9,130.9,12.8,130.7,12.8z"/>
	<path class="st0" d="M135.1,10.1v7.3h-0.8v-7.1L135.1,10.1z"/>
	<path class="st0" d="M136.7,11.3c-0.1,0-0.3-0.1-0.4-0.2c-0.1-0.1-0.1-0.2-0.1-0.4c0-0.1,0-0.3,0.1-0.4c0.1-0.1,0.2-0.1,0.4-0.1
		c0.1,0,0.3,0,0.4,0.1c0.1,0.1,0.1,0.2,0.1,0.4c0,0.1,0,0.3-0.1,0.4C137,11.2,136.9,11.3,136.7,11.3z M137.1,12.2v5.1h-0.8v-5.1
		H137.1z"/>
	<path class="st0" d="M140.8,16.7c0.3,0,0.5-0.1,0.8-0.2c0.3-0.1,0.5-0.3,0.7-0.5l0.5,0.5c-0.3,0.3-0.6,0.5-0.9,0.6
		c-0.3,0.1-0.7,0.2-1.1,0.2c-0.4,0-0.7-0.1-1-0.2c-0.3-0.1-0.6-0.3-0.8-0.6c-0.2-0.2-0.4-0.5-0.5-0.8c-0.1-0.3-0.2-0.7-0.2-1
		c0-0.4,0.1-0.7,0.2-1s0.3-0.6,0.5-0.8c0.2-0.2,0.5-0.4,0.8-0.6c0.3-0.1,0.7-0.2,1-0.2c0.4,0,0.7,0.1,1.1,0.2s0.7,0.3,0.9,0.6
		l-0.5,0.5c-0.2-0.2-0.4-0.4-0.7-0.5c-0.3-0.1-0.5-0.2-0.8-0.2c-0.3,0-0.5,0.1-0.7,0.2c-0.2,0.1-0.4,0.2-0.6,0.4
		c-0.2,0.2-0.3,0.4-0.4,0.6c-0.1,0.2-0.1,0.5-0.1,0.8c0,0.3,0,0.5,0.1,0.8c0.1,0.2,0.2,0.4,0.4,0.6c0.2,0.2,0.4,0.3,0.6,0.4
		C140.3,16.7,140.5,16.7,140.8,16.7z"/>
	<path class="st0" d="M145.2,17.4c-0.5,0-1-0.1-1.4-0.4c-0.4-0.3-0.5-0.7-0.5-1.1c0-0.3,0.1-0.5,0.2-0.7c0.1-0.2,0.2-0.4,0.4-0.5
		c0.2-0.1,0.4-0.2,0.6-0.3c0.2-0.1,0.5-0.1,0.8-0.1c0.3,0,0.5,0,0.8,0.1c0.3,0.1,0.5,0.1,0.7,0.3V14c0-0.4-0.1-0.7-0.3-0.9
		c-0.2-0.2-0.6-0.3-1-0.3c-0.3,0-0.5,0-0.8,0.1c-0.3,0.1-0.5,0.2-0.8,0.3l-0.3-0.6c0.3-0.2,0.7-0.3,1-0.4c0.3-0.1,0.6-0.1,1-0.1
		c0.6,0,1.1,0.2,1.5,0.5c0.4,0.3,0.5,0.7,0.5,1.3v3.4h-0.7v-0.5c-0.2,0.2-0.5,0.3-0.8,0.4C145.8,17.4,145.5,17.4,145.2,17.4z
		 M144.1,15.9c0,0.3,0.1,0.5,0.4,0.7c0.2,0.2,0.6,0.3,0.9,0.3c0.3,0,0.6-0.1,0.8-0.2c0.3-0.1,0.5-0.2,0.7-0.4v-1
		c-0.2-0.1-0.4-0.2-0.7-0.3c-0.2-0.1-0.5-0.1-0.8-0.1c-0.4,0-0.7,0.1-1,0.3C144.2,15.3,144.1,15.6,144.1,15.9z"/>
	<path class="st0" d="M149.3,16.2v-3.3h-1.1v-0.6h1.1V11l0.7-0.2v1.5h1.5v0.6H150V16c0,0.3,0.1,0.5,0.2,0.6c0.1,0.1,0.3,0.2,0.6,0.2
		c0.1,0,0.3,0,0.4,0s0.2-0.1,0.4-0.1v0.7c-0.1,0-0.3,0.1-0.4,0.1c-0.2,0-0.3,0-0.5,0c-0.4,0-0.8-0.1-1-0.3
		C149.4,16.9,149.3,16.6,149.3,16.2z"/>
	<path class="st0" d="M152.7,11.3c-0.1,0-0.3-0.1-0.4-0.2c-0.1-0.1-0.1-0.2-0.1-0.4c0-0.1,0-0.3,0.1-0.4c0.1-0.1,0.2-0.1,0.4-0.1
		c0.1,0,0.3,0,0.4,0.1c0.1,0.1,0.1,0.2,0.1,0.4c0,0.1,0,0.3-0.1,0.4C153,11.2,152.9,11.3,152.7,11.3z M153.1,12.2v5.1h-0.8v-5.1
		H153.1z"/>
	<path class="st0" d="M154.1,14.8c0-0.4,0.1-0.7,0.2-1c0.1-0.3,0.3-0.6,0.6-0.8c0.2-0.2,0.5-0.4,0.8-0.6c0.3-0.1,0.7-0.2,1-0.2
		c0.4,0,0.7,0.1,1,0.2c0.3,0.1,0.6,0.3,0.8,0.6c0.2,0.2,0.4,0.5,0.6,0.8c0.1,0.3,0.2,0.7,0.2,1c0,0.4-0.1,0.7-0.2,1
		c-0.1,0.3-0.3,0.6-0.6,0.8c-0.2,0.2-0.5,0.4-0.8,0.6c-0.3,0.1-0.7,0.2-1,0.2c-0.4,0-0.7-0.1-1-0.2c-0.3-0.1-0.6-0.3-0.8-0.6
		c-0.2-0.2-0.4-0.5-0.6-0.8C154.2,15.5,154.1,15.2,154.1,14.8z M158.6,14.8c0-0.3,0-0.5-0.1-0.8c-0.1-0.2-0.2-0.4-0.4-0.6
		c-0.2-0.2-0.4-0.3-0.6-0.4c-0.2-0.1-0.5-0.2-0.7-0.2c-0.3,0-0.5,0.1-0.7,0.2c-0.2,0.1-0.4,0.2-0.6,0.4c-0.2,0.2-0.3,0.4-0.4,0.6
		c-0.1,0.2-0.1,0.5-0.1,0.8c0,0.3,0,0.5,0.1,0.8c0.1,0.2,0.2,0.5,0.4,0.6c0.2,0.2,0.4,0.3,0.6,0.4c0.2,0.1,0.5,0.2,0.7,0.2
		c0.3,0,0.5-0.1,0.7-0.2c0.2-0.1,0.4-0.2,0.6-0.4c0.2-0.2,0.3-0.4,0.4-0.6C158.5,15.3,158.6,15.1,158.6,14.8z"/>
	<path class="st0" d="M160.4,17.3v-5.1h0.8v0.6c0.2-0.2,0.4-0.4,0.7-0.5c0.3-0.1,0.6-0.2,0.9-0.2c0.6,0,1.1,0.2,1.4,0.5
		c0.4,0.4,0.5,0.8,0.5,1.4v3.2h-0.7v-3.1c0-0.4-0.1-0.8-0.4-1.1c-0.3-0.3-0.6-0.4-1-0.4c-0.3,0-0.6,0.1-0.8,0.2
		c-0.2,0.1-0.4,0.3-0.6,0.6v3.7H160.4z"/>
	<path class="st0" d="M171.8,16.8l-2.8-5.7v6.2h-0.7v-7.1h1.1l2.4,5l2.4-5h1.1v7.1h-0.7v-6.2L171.8,16.8z"/>
	<path class="st0" d="M177.1,11.3c-0.1,0-0.3-0.1-0.4-0.2c-0.1-0.1-0.1-0.2-0.1-0.4c0-0.1,0-0.3,0.1-0.4c0.1-0.1,0.2-0.1,0.4-0.1
		c0.1,0,0.3,0,0.4,0.1c0.1,0.1,0.1,0.2,0.1,0.4c0,0.1,0,0.3-0.1,0.4C177.3,11.2,177.2,11.3,177.1,11.3z M177.5,12.2v5.1h-0.8v-5.1
		H177.5z"/>
	<path class="st0" d="M181,17.4c-0.4,0-0.7-0.1-1-0.2c-0.3-0.1-0.6-0.3-0.8-0.6c-0.2-0.2-0.4-0.5-0.5-0.8c-0.1-0.3-0.2-0.7-0.2-1
		c0-0.4,0.1-0.7,0.2-1c0.1-0.3,0.3-0.6,0.5-0.8c0.2-0.2,0.5-0.4,0.8-0.6c0.3-0.1,0.7-0.2,1-0.2c0.3,0,0.6,0.1,0.9,0.2
		c0.3,0.1,0.5,0.3,0.7,0.4v-0.5h0.7v5.2c0,0.7-0.2,1.2-0.6,1.5s-0.9,0.5-1.6,0.5c-0.4,0-0.7,0-1-0.1c-0.3-0.1-0.7-0.2-0.9-0.4
		l0.3-0.6c0.3,0.2,0.6,0.3,0.8,0.4c0.3,0.1,0.5,0.1,0.8,0.1c0.5,0,0.8-0.1,1.1-0.3c0.3-0.2,0.4-0.6,0.4-1v-0.6
		c-0.2,0.2-0.5,0.3-0.7,0.4C181.6,17.3,181.3,17.4,181,17.4z M179.2,14.8c0,0.3,0,0.5,0.1,0.8c0.1,0.2,0.2,0.4,0.4,0.6
		c0.2,0.2,0.4,0.3,0.6,0.4c0.2,0.1,0.5,0.2,0.7,0.2c0.3,0,0.6-0.1,0.9-0.2c0.3-0.1,0.5-0.3,0.7-0.5v-2.5c-0.2-0.2-0.4-0.4-0.7-0.5
		c-0.3-0.1-0.6-0.2-0.9-0.2c-0.3,0-0.5,0-0.7,0.1c-0.2,0.1-0.4,0.2-0.6,0.4c-0.2,0.2-0.3,0.4-0.4,0.6
		C179.3,14.2,179.2,14.5,179.2,14.8z"/>
	<path class="st0" d="M184.7,17.3v-5.1h0.8v0.7c0.2-0.3,0.4-0.5,0.6-0.6c0.3-0.1,0.5-0.2,0.8-0.2c0.1,0,0.2,0,0.3,0
		c0.1,0,0.1,0,0.2,0.1v0.7c-0.1,0-0.1,0-0.2-0.1c-0.1,0-0.2,0-0.3,0c-0.3,0-0.5,0.1-0.8,0.2c-0.2,0.2-0.4,0.4-0.6,0.8v3.5H184.7z"/>
	<path class="st0" d="M189.5,17.4c-0.5,0-1-0.1-1.4-0.4c-0.4-0.3-0.5-0.7-0.5-1.1c0-0.3,0.1-0.5,0.2-0.7c0.1-0.2,0.2-0.4,0.4-0.5
		c0.2-0.1,0.4-0.2,0.6-0.3c0.2-0.1,0.5-0.1,0.8-0.1c0.3,0,0.5,0,0.8,0.1c0.3,0.1,0.5,0.1,0.7,0.3V14c0-0.4-0.1-0.7-0.3-0.9
		c-0.2-0.2-0.6-0.3-1-0.3c-0.3,0-0.5,0-0.8,0.1c-0.3,0.1-0.5,0.2-0.8,0.3l-0.3-0.6c0.3-0.2,0.7-0.3,1-0.4c0.3-0.1,0.6-0.1,1-0.1
		c0.6,0,1.1,0.2,1.5,0.5c0.4,0.3,0.5,0.7,0.5,1.3v3.4h-0.7v-0.5c-0.2,0.2-0.5,0.3-0.8,0.4C190.2,17.4,189.9,17.4,189.5,17.4z
		 M188.4,15.9c0,0.3,0.1,0.5,0.4,0.7c0.2,0.2,0.6,0.3,0.9,0.3c0.3,0,0.6-0.1,0.8-0.2c0.3-0.1,0.5-0.2,0.7-0.4v-1
		c-0.2-0.1-0.4-0.2-0.7-0.3c-0.2-0.1-0.5-0.1-0.8-0.1c-0.4,0-0.7,0.1-1,0.3S188.4,15.6,188.4,15.9z"/>
	<path class="st0" d="M193.6,16.2v-3.3h-1.1v-0.6h1.1V11l0.7-0.2v1.5h1.5v0.6h-1.5V16c0,0.3,0.1,0.5,0.2,0.6
		c0.1,0.1,0.3,0.2,0.6,0.2c0.1,0,0.3,0,0.4,0c0.1,0,0.2-0.1,0.4-0.1v0.7c-0.1,0-0.3,0.1-0.4,0.1c-0.2,0-0.3,0-0.5,0
		c-0.4,0-0.8-0.1-1-0.3C193.7,16.9,193.6,16.6,193.6,16.2z"/>
	<path class="st0" d="M197,11.3c-0.1,0-0.3-0.1-0.4-0.2c-0.1-0.1-0.1-0.2-0.1-0.4c0-0.1,0-0.3,0.1-0.4c0.1-0.1,0.2-0.1,0.4-0.1
		c0.1,0,0.3,0,0.4,0.1c0.1,0.1,0.1,0.2,0.1,0.4c0,0.1,0,0.3-0.1,0.4C197.3,11.2,197.2,11.3,197,11.3z M197.4,12.2v5.1h-0.8v-5.1
		H197.4z"/>
	<path class="st0" d="M198.5,14.8c0-0.4,0.1-0.7,0.2-1c0.1-0.3,0.3-0.6,0.6-0.8c0.2-0.2,0.5-0.4,0.8-0.6c0.3-0.1,0.7-0.2,1-0.2
		c0.4,0,0.7,0.1,1,0.2c0.3,0.1,0.6,0.3,0.8,0.6c0.2,0.2,0.4,0.5,0.6,0.8c0.1,0.3,0.2,0.7,0.2,1c0,0.4-0.1,0.7-0.2,1
		c-0.1,0.3-0.3,0.6-0.6,0.8c-0.2,0.2-0.5,0.4-0.8,0.6c-0.3,0.1-0.7,0.2-1,0.2c-0.4,0-0.7-0.1-1-0.2c-0.3-0.1-0.6-0.3-0.8-0.6
		c-0.2-0.2-0.4-0.5-0.6-0.8C198.5,15.5,198.5,15.2,198.5,14.8z M202.9,14.8c0-0.3,0-0.5-0.1-0.8c-0.1-0.2-0.2-0.4-0.4-0.6
		c-0.2-0.2-0.4-0.3-0.6-0.4c-0.2-0.1-0.5-0.2-0.7-0.2c-0.3,0-0.5,0.1-0.7,0.2c-0.2,0.1-0.4,0.2-0.6,0.4c-0.2,0.2-0.3,0.4-0.4,0.6
		c-0.1,0.2-0.1,0.5-0.1,0.8c0,0.3,0,0.5,0.1,0.8c0.1,0.2,0.2,0.5,0.4,0.6c0.2,0.2,0.4,0.3,0.6,0.4c0.2,0.1,0.5,0.2,0.7,0.2
		c0.3,0,0.5-0.1,0.7-0.2c0.2-0.1,0.4-0.2,0.6-0.4c0.2-0.2,0.3-0.4,0.4-0.6C202.9,15.3,202.9,15.1,202.9,14.8z"/>
	<path class="st0" d="M204.7,17.3v-5.1h0.8v0.6c0.2-0.2,0.4-0.4,0.7-0.5c0.3-0.1,0.6-0.2,0.9-0.2c0.6,0,1.1,0.2,1.4,0.5
		c0.4,0.4,0.5,0.8,0.5,1.4v3.2h-0.7v-3.1c0-0.4-0.1-0.8-0.4-1.1c-0.3-0.3-0.6-0.4-1-0.4c-0.3,0-0.6,0.1-0.8,0.2
		c-0.2,0.1-0.4,0.3-0.6,0.6v3.7H204.7z"/>
	<path class="st0" d="M212,10.9v-0.7h5.9v0.7h-2.6v6.4h-0.8v-6.4H212z"/>
	<path class="st0" d="M217.3,14.8c0-0.4,0.1-0.7,0.2-1c0.1-0.3,0.3-0.6,0.6-0.8c0.2-0.2,0.5-0.4,0.8-0.6c0.3-0.1,0.7-0.2,1-0.2
		c0.4,0,0.7,0.1,1,0.2c0.3,0.1,0.6,0.3,0.8,0.6c0.2,0.2,0.4,0.5,0.6,0.8c0.1,0.3,0.2,0.7,0.2,1c0,0.4-0.1,0.7-0.2,1
		c-0.1,0.3-0.3,0.6-0.6,0.8c-0.2,0.2-0.5,0.4-0.8,0.6c-0.3,0.1-0.7,0.2-1,0.2c-0.4,0-0.7-0.1-1-0.2c-0.3-0.1-0.6-0.3-0.8-0.6
		c-0.2-0.2-0.4-0.5-0.6-0.8C217.3,15.5,217.3,15.2,217.3,14.8z M221.7,14.8c0-0.3,0-0.5-0.1-0.8c-0.1-0.2-0.2-0.4-0.4-0.6
		c-0.2-0.2-0.4-0.3-0.6-0.4c-0.2-0.1-0.5-0.2-0.7-0.2c-0.3,0-0.5,0.1-0.7,0.2c-0.2,0.1-0.4,0.2-0.6,0.4c-0.2,0.2-0.3,0.4-0.4,0.6
		c-0.1,0.2-0.1,0.5-0.1,0.8c0,0.3,0,0.5,0.1,0.8c0.1,0.2,0.2,0.5,0.4,0.6c0.2,0.2,0.4,0.3,0.6,0.4c0.2,0.1,0.5,0.2,0.7,0.2
		c0.3,0,0.5-0.1,0.7-0.2c0.2-0.1,0.4-0.2,0.6-0.4c0.2-0.2,0.3-0.4,0.4-0.6C221.7,15.3,221.7,15.1,221.7,14.8z"/>
	<path class="st0" d="M223.3,14.8c0-0.4,0.1-0.7,0.2-1c0.1-0.3,0.3-0.6,0.6-0.8c0.2-0.2,0.5-0.4,0.8-0.6c0.3-0.1,0.7-0.2,1-0.2
		c0.4,0,0.7,0.1,1,0.2c0.3,0.1,0.6,0.3,0.8,0.6c0.2,0.2,0.4,0.5,0.6,0.8c0.1,0.3,0.2,0.7,0.2,1c0,0.4-0.1,0.7-0.2,1
		c-0.1,0.3-0.3,0.6-0.6,0.8c-0.2,0.2-0.5,0.4-0.8,0.6c-0.3,0.1-0.7,0.2-1,0.2c-0.4,0-0.7-0.1-1-0.2c-0.3-0.1-0.6-0.3-0.8-0.6
		c-0.2-0.2-0.4-0.5-0.6-0.8C223.3,15.5,223.3,15.2,223.3,14.8z M227.7,14.8c0-0.3,0-0.5-0.1-0.8c-0.1-0.2-0.2-0.4-0.4-0.6
		c-0.2-0.2-0.4-0.3-0.6-0.4c-0.2-0.1-0.5-0.2-0.7-0.2c-0.3,0-0.5,0.1-0.7,0.2c-0.2,0.1-0.4,0.2-0.6,0.4c-0.2,0.2-0.3,0.4-0.4,0.6
		c-0.1,0.2-0.1,0.5-0.1,0.8c0,0.3,0,0.5,0.1,0.8c0.1,0.2,0.2,0.5,0.4,0.6c0.2,0.2,0.4,0.3,0.6,0.4c0.2,0.1,0.5,0.2,0.7,0.2
		c0.3,0,0.5-0.1,0.7-0.2c0.2-0.1,0.4-0.2,0.6-0.4c0.2-0.2,0.3-0.4,0.4-0.6C227.7,15.3,227.7,15.1,227.7,14.8z"/>
	<path class="st0" d="M230.2,10.1v7.3h-0.8v-7.1L230.2,10.1z"/>
</g>
</svg>
