<?xml version="1.0" encoding="UTF-8" standalone="no"?>
<svg
   xmlns:dc="http://purl.org/dc/elements/1.1/"
   xmlns:cc="http://creativecommons.org/ns#"
   xmlns:rdf="http://www.w3.org/1999/02/22-rdf-syntax-ns#"
   xmlns:svg="http://www.w3.org/2000/svg"
   xmlns="http://www.w3.org/2000/svg"
   xmlns:sodipodi="http://sodipodi.sourceforge.net/DTD/sodipodi-0.dtd"
   xmlns:inkscape="http://www.inkscape.org/namespaces/inkscape"
   width="250"
   height="250"
   viewBox="0 0 66.145832 66.145835"
   version="1.1"
   id="svg2529"
   inkscape:version="1.0.1 (3bc2e813f5, 2020-09-07)"
   sodipodi:docname="crane-logo-lightbg.svg">
  <defs
     id="defs2523">
    <inkscape:perspective
       sodipodi:type="inkscape:persp3d"
       inkscape:vp_x="0 : 33.072918 : 1"
       inkscape:vp_y="0 : 1000 : 0"
       inkscape:vp_z="66.145832 : 33.072918 : 1"
       inkscape:persp3d-origin="33.072916 : 22.048612 : 1"
       id="perspective3190" />
  </defs>
  <sodipodi:namedview
     id="base"
     pagecolor="#ffffff"
     bordercolor="#666666"
     borderopacity="1.0"
     inkscape:pageopacity="0.0"
     inkscape:pageshadow="2"
     inkscape:zoom="1.979899"
     inkscape:cx="73.819153"
     inkscape:cy="132.23999"
     inkscape:document-units="mm"
     inkscape:current-layer="layer1"
     inkscape:document-rotation="0"
     showgrid="false"
     inkscape:window-width="1920"
     inkscape:window-height="1136"
     inkscape:window-x="0"
     inkscape:window-y="27"
     inkscape:window-maximized="0"
     units="px"
     inkscape:showpageshadow="false" />
  <metadata
     id="metadata2526">
    <rdf:RDF>
      <cc:Work
         rdf:about="">
        <dc:format>image/svg+xml</dc:format>
        <dc:type
           rdf:resource="http://purl.org/dc/dcmitype/StillImage" />
        <dc:title></dc:title>
      </cc:Work>
    </rdf:RDF>
  </metadata>
  <g
     inkscape:label="Layer 1"
     inkscape:groupmode="layer"
     id="layer1">
    <rect
       ry="0"
       rx="0"
       y="29.941242"
       x="25.875996"
       height="4.4913378"
       width="11.527767"
       id="rect6669-8"
       style="display:inline;opacity:1;vector-effect:none;fill:#000000;fill-opacity:1;stroke:none;stroke-width:0.0625697;stroke-linecap:round;stroke-linejoin:round;stroke-miterlimit:4;stroke-dasharray:none;stroke-dashoffset:0;stroke-opacity:0.377953;paint-order:markers fill stroke"
       transform="rotate(-4.5215379)" />
    <g
       id="g951"
       transform="translate(7.848303)">
      <path
         style="color:#000000;display:inline;overflow:visible;vector-effect:none;fill:#ac9565;fill-opacity:1;fill-rule:nonzero;stroke:none;stroke-width:0.057295;stroke-linecap:butt;stroke-linejoin:miter;stroke-miterlimit:4;stroke-dasharray:none;stroke-dashoffset:0;stroke-opacity:1;paint-order:normal"
         d="m 17.052622,26.803822 c -0.245085,0.01792 -0.42845,0.230445 -0.410497,0.475445 l 1.264896,17.271189 c 0.01809,0.245085 0.230411,0.428485 0.475428,0.41053 l 17.271142,-1.265452 c 0.245068,-0.01792 0.427369,-0.230363 0.409416,-0.475363 L 34.798111,25.948983 C 34.780021,25.7039 34.568916,25.520416 34.323764,25.538384 Z m 6.61531,1.97733 4.399409,-0.322271 c 0.396399,-0.02908 0.738416,0.266298 0.767475,0.662697 0.02908,0.396416 -0.2663,0.738449 -0.662682,0.767492 l -4.39941,0.322271 c -0.396432,0.02908 -0.739531,-0.266215 -0.768607,-0.662631 -0.02908,-0.396381 0.267399,-0.738517 0.663815,-0.767558 z"
         id="path887"
         inkscape:connector-curvature="0"
         sodipodi:nodetypes="sccssccssccsccsc" />
      <g
         id="g895"
         transform="matrix(1.8133684,0,0,1.8133684,-265.93581,-44.700253)"
         style="fill:#000000;fill-opacity:1;stroke-width:0.591551">
        <path
           style="color:#000000;font-style:normal;font-variant:normal;font-weight:normal;font-stretch:normal;font-size:medium;line-height:normal;font-family:sans-serif;font-variant-ligatures:normal;font-variant-position:normal;font-variant-caps:normal;font-variant-numeric:normal;font-variant-alternates:normal;font-variant-east-asian:normal;font-feature-settings:normal;font-variation-settings:normal;text-indent:0;text-align:start;text-decoration:none;text-decoration-line:none;text-decoration-style:solid;text-decoration-color:#000000;letter-spacing:normal;word-spacing:normal;text-transform:none;writing-mode:lr-tb;direction:ltr;text-orientation:mixed;dominant-baseline:auto;baseline-shift:baseline;text-anchor:start;white-space:normal;shape-padding:0;shape-margin:0;inline-size:0;clip-rule:nonzero;display:inline;overflow:visible;visibility:visible;opacity:1;isolation:auto;mix-blend-mode:normal;color-interpolation:sRGB;color-interpolation-filters:linearRGB;solid-color:#000000;solid-opacity:1;vector-effect:none;fill:#000000;fill-opacity:1;fill-rule:nonzero;stroke:none;stroke-width:0.591551;stroke-linecap:round;stroke-linejoin:round;stroke-miterlimit:4;stroke-dasharray:none;stroke-dashoffset:0;stroke-opacity:1;paint-order:stroke fill markers;color-rendering:auto;image-rendering:auto;shape-rendering:auto;text-rendering:auto;enable-background:accumulate;stop-color:#000000;stop-opacity:1"
           d="m 160.78516,25.421875 c -0.10444,-0.002 -0.20689,0.02871 -0.29297,0.08789 l -1.72071,1.179687 c -0.21292,0.145239 -0.28057,0.428522 -0.15625,0.654297 l 1.63086,2.972656 c 0.003,0.0053 0.007,0.01048 0.01,0.01563 0.0101,0.01692 0.0212,0.03322 0.0332,0.04883 0.009,0.01079 0.0178,0.02122 0.0273,0.03125 0.007,0.008 0.0141,0.01586 0.0215,0.02344 0.0106,0.01025 0.0217,0.02003 0.0332,0.0293 0.0114,0.009 0.0231,0.01744 0.0352,0.02539 0.009,0.0062 0.018,0.01202 0.0273,0.01758 0.0127,0.0071 0.0258,0.01359 0.0391,0.01953 0.0153,0.0073 0.0309,0.01382 0.0469,0.01953 0.0122,0.0044 0.0246,0.0083 0.0371,0.01172 0.004,0.0013 0.008,0.0026 0.0117,0.0039 0.001,5e-6 0.003,5e-6 0.004,0 0.0168,0.0041 0.0337,0.0074 0.0508,0.0098 0.0207,0.0026 0.0416,0.0039 0.0625,0.0039 0.66698,10e-7 1.19726,0.530282 1.19726,1.197266 0,0.666983 -0.53028,1.197266 -1.19726,1.197265 -0.66698,10e-7 -1.19727,-0.530282 -1.19727,-1.197265 0,-0.276142 -0.22386,-0.5 -0.5,-0.5 -0.27614,0 -0.5,0.223858 -0.5,0.5 0,1.207426 0.98985,2.197266 2.19727,2.197265 1.20742,10e-7 2.19726,-0.989839 2.19726,-2.197265 0,-0.933724 -0.66747,-1.588034 -1.49414,-1.904297 l 1.48828,-2.511719 c 0.13355,-0.224142 0.0723,-0.513292 -0.14062,-0.664063 l -1.67383,-1.179687 c -0.0812,-0.05752 -0.17782,-0.08949 -0.27734,-0.0918 z"
           id="path1766"
           sodipodi:nodetypes="cccccccccccccccccccssssssscccccc" />
      </g>
      <g
         id="g1828"
         style="fill:#333481;fill-opacity:1;stroke-width:0.591551"
         transform="matrix(1.6904727,0,0,1.6904727,-262.09217,-170.31895)">
        <path
           style="color:#000000;font-style:normal;font-variant:normal;font-weight:normal;font-stretch:normal;font-size:medium;line-height:normal;font-family:sans-serif;font-variant-ligatures:normal;font-variant-position:normal;font-variant-caps:normal;font-variant-numeric:normal;font-variant-alternates:normal;font-variant-east-asian:normal;font-feature-settings:normal;font-variation-settings:normal;text-indent:0;text-align:start;text-decoration:none;text-decoration-line:none;text-decoration-style:solid;text-decoration-color:#000000;letter-spacing:normal;word-spacing:normal;text-transform:none;writing-mode:lr-tb;direction:ltr;text-orientation:mixed;dominant-baseline:auto;baseline-shift:baseline;text-anchor:start;white-space:normal;shape-padding:0;shape-margin:0;inline-size:0;clip-rule:nonzero;display:inline;overflow:visible;visibility:visible;isolation:auto;mix-blend-mode:normal;color-interpolation:sRGB;color-interpolation-filters:linearRGB;solid-color:#000000;solid-opacity:1;vector-effect:none;fill:#333481;fill-opacity:1;fill-rule:nonzero;stroke:none;stroke-width:0.634556;stroke-linecap:round;stroke-linejoin:round;stroke-miterlimit:4;stroke-dasharray:none;stroke-dashoffset:0;stroke-opacity:1;color-rendering:auto;image-rendering:auto;shape-rendering:auto;text-rendering:auto;enable-background:accumulate;stop-color:#000000"
           d="m 170.30767,108.46073 c -0.1559,-0.002 -0.30503,0.0636 -0.40855,0.18018 -0.19688,0.22057 -0.17814,0.55887 0.0419,0.75634 l 6.46733,6.09828 0.90299,11.84788 -12.4345,0.89042 -0.74796,-11.67398 4.63829,-5.06509 c 0.20428,-0.21463 0.19581,-0.55424 -0.0189,-0.75843 -0.21463,-0.20428 -0.55424,-0.19581 -0.75843,0.0189 l -4.79962,5.2348 c -0.10315,0.10843 -0.15632,0.25502 -0.14666,0.40436 l 0.79824,12.44708 c 0.019,0.2974 0.27684,0.52227 0.57407,0.50073 l 13.5093,-0.96794 c 0.29572,-0.0212 0.51812,-0.27837 0.49654,-0.57406 l -0.95958,-12.60212 c -0.0109,-0.13792 -0.0747,-0.26628 -0.17809,-0.35827 l -6.62864,-6.24284 c -0.0959,-0.0856 -0.21929,-0.13393 -0.34779,-0.13619 z"
           id="path1762"
           sodipodi:nodetypes="ccccccccccccccccccccc" />
      </g>
      <text
         xml:space="preserve"
         style="font-style:normal;font-weight:normal;font-size:10.8784px;line-height:1.25;font-family:sans-serif;letter-spacing:0px;word-spacing:0px;fill:#000000;fill-opacity:1;stroke:none;stroke-width:0.235522"
         x="24.492002"
         y="61.376709"
         id="text905"
         transform="scale(1.0317449,0.96923184)"><tspan
           sodipodi:role="line"
           id="tspan903"
           x="24.492002"
           y="61.376709"
           style="font-style:normal;font-variant:normal;font-weight:900;font-stretch:normal;font-family:Raleway;-inkscape-font-specification:'Raleway Heavy';text-align:center;text-anchor:middle;fill:#000000;fill-opacity:1;stroke-width:0.235522">CRANE</tspan></text>
    </g>
  </g>
</svg>
