<?xml version="1.0" encoding="UTF-8"?>
<svg width="960px" height="1024px" viewBox="0 0 960 1024" version="1.1" xmlns="http://www.w3.org/2000/svg" xmlns:xlink="http://www.w3.org/1999/xlink">
    <title>namespaces</title>
    <g id="namespaces" stroke="none" stroke-width="1" fill="none" fill-rule="evenodd">
        <path fill="#06c" d="M512,704 L640,704 L640,575 L512,575 L512,704 Z M320,704 L448,704 L448,575 L320,575 L320,704 Z M320,511 L448,511 L448,384 L320,384 L320,511 Z M512,511 L640,511 L640,384 L512,384 L512,511 Z M680,320 L280,320 C266.745,320 256,330.745 256,344 L256,744 C256,757.255 266.745,768 280,768 L680,768 C693.255,768 704,757.255 704,744 L704,344 C704,330.745 693.255,320 680,320 L680,320 Z M783.884,190.931 L896,256 L896,832.713 L783.884,897.781 C774.052,903.488 768,913.997 768,925.365 C768,949.939 794.624,965.281 815.886,952.957 L948.035,876.36 C955.441,872.068 960,864.156 960,855.597 L960,233.116 C960,224.557 955.441,216.645 948.035,212.352 L815.886,135.755 C794.624,123.432 768,138.773 768,163.348 C768,174.716 774.052,185.225 783.884,190.931 L783.884,190.931 Z M192,163.348 L192,163.348 C192,138.773 165.376,123.432 144.115,135.755 L11.965,212.352 C4.559,216.645 0,224.557 0,233.116 L0,855.597 C0,864.156 4.559,872.068 11.965,876.36 L144.115,952.957 C165.376,965.281 192,949.939 192,925.365 C192,913.997 185.949,903.488 176.116,897.781 L64,832.713 L64,256 L176.116,190.931 C185.949,185.225 192,174.716 192,163.348 L192,163.348 Z" id="Fill-1"></path>
    </g>
</svg>