<?xml version="1.0" encoding="utf-8"?>
<!-- Generator: Adobe Illustrator 22.1.0, SVG Export Plug-In . SVG Version: 6.00 Build 0)  -->
<svg version="1.1" id="Logos" xmlns="http://www.w3.org/2000/svg" xmlns:xlink="http://www.w3.org/1999/xlink" x="0px" y="0px"
	 viewBox="0 0 486.2 44" style="enable-background:new 0 0 486.2 44;" xml:space="preserve">
<style type="text/css">
	.st0{fill:#FFFFFF;}
	.st1{fill:#CC0000;}
	.st2{fill:#EE0000;}
	.st3{fill:#A30000;}
</style>
<title>Logo-Red_Hat-Product Logo copy 2-RGB</title>
<path class="st0" d="M39,35.8c-2.9,0-5.3-2.3-5.3-5.2s2.3-5.2,5.3-5.2s5.3,2.3,5.3,5.2C44.4,33.5,42,35.8,39,35.8z M39,26.8
	c-2.1,0-3.7,1.6-3.7,3.9s1.6,3.9,3.7,3.9s3.8-1.7,3.8-3.9S41.2,26.8,39,26.8z"/>
<path class="st0" d="M45.8,28.2h1.5v0.7c0.6-0.5,1.5-0.9,2.2-0.9c2.1,0,3.7,1.7,3.7,3.8c0,2.1-1.6,3.8-3.8,3.8
	c-0.8,0-1.5-0.3-2.2-0.7v3.6h-1.4V28.2z M47.2,30.3v3.3c0.4,0.5,1.2,0.9,2.1,0.9c1.5,0,2.5-1.1,2.5-2.6s-1.1-2.6-2.5-2.6
	C48.5,29.4,47.7,29.8,47.2,30.3L47.2,30.3z"/>
<path class="st0" d="M58.2,35.8c-2.1,0-3.9-1.7-3.9-3.9s1.6-3.8,3.7-3.8s3.6,1.7,3.6,3.9v0.4h-5.8c0.2,1.2,1.3,2.1,2.5,2.1
	c0.7,0,1.4-0.3,1.9-0.7l0.9,0.9C60.2,35.4,59.2,35.8,58.2,35.8z M55.7,31.3H60c-0.3-1.1-1.1-2-2.1-2C56.8,29.3,55.9,30.2,55.7,31.3
	L55.7,31.3z"/>
<path class="st0" d="M62.9,28.2h1.5V29c0.6-0.6,1.4-0.9,2.2-0.9c1.7,0,2.9,1.2,2.9,2.9v4.5H68v-4.4c0-1.2-0.7-1.9-1.8-1.9
	c-0.8,0-1.5,0.3-1.8,0.9v5.3H63L62.9,28.2z"/>
<path class="st0" d="M71.3,32.9c1.1,1.1,2.2,1.6,3.5,1.6c1.5,0,2.5-0.7,2.5-1.7c0-0.9-0.6-1.4-2.1-1.6l-1.7-0.3
	c-1.9-0.3-2.7-1.2-2.7-2.7c0-1.8,1.5-2.9,3.8-2.9c1.5,0,2.9,0.5,4.1,1.4l-0.9,1.2c-1.1-0.9-2.2-1.3-3.3-1.3c-1.3,0-2.2,0.6-2.2,1.5
	c0,0.9,0.5,1.2,1.8,1.5l1.6,0.3c2.1,0.3,3.1,1.2,3.1,2.8c0,1.9-1.6,3.1-4,3.1c-1.6,0-3.2-0.7-4.4-1.8L71.3,32.9z"/>
<path class="st0" d="M80,25.5l1.5-0.3V29c0.6-0.6,1.4-0.9,2.2-0.9c1.7,0,2.9,1.2,2.9,2.9v4.5h-1.5v-4.4c0-1.2-0.7-1.9-1.8-1.9
	c-0.8,0-1.5,0.3-1.8,0.9v5.3h-1.5L80,25.5L80,25.5z"/>
<path class="st0" d="M88.1,26.2c0-0.5,0.4-0.9,0.9-0.9l0,0c0.5,0,0.9,0.3,0.9,0.9c0,0.5-0.3,0.9-0.9,0.9H89
	C88.4,27.1,88.1,26.7,88.1,26.2L88.1,26.2z M89.6,35.6h-1.5v-7.4h1.5V35.6z"/>
<path class="st0" d="M92.5,28.2v-1.1c0-1.5,0.9-2.4,2.5-2.4c0.3,0,0.7,0,1,0.2v1.3C95.7,26.1,95.4,26,95,26c-0.8,0-1.2,0.3-1.2,1.1
	v1.1H96v1.2h-2.1v6.2h-1.5v-6.2h-1.7v-1.2C90.7,28.2,92.5,28.2,92.5,28.2z"/>
<path class="st0" d="M98.2,29.5h-1.5v-1.2h1.5v-1.9l1.5-0.3v2.2h2.1v1.2h-2.1v4c0,0.8,0.3,1,1.1,1c0.3,0,0.7-0.1,1-0.2v1.2
	c-0.4,0.2-0.9,0.2-1.4,0.3c-1.5,0-2.2-0.7-2.2-2V29.5z"/>
<path class="st0" d="M114.3,33.4l0.7,0.8c-1,1.1-2.5,1.7-3.9,1.7c-2.9,0.1-5.2-2.2-5.3-5.1c-0.1-2.9,2.2-5.2,5.1-5.3
	c0.1,0,0.1,0,0.2,0c1.5,0,3,0.6,4,1.7l-0.8,0.8c-0.9-0.9-2.1-1.5-3.3-1.5c-2.3,0-4.1,1.8-4.1,4.2c0,2.4,1.8,4.2,4.1,4.2
	C112.4,34.7,113.6,34.2,114.3,33.4z"/>
<path class="st0" d="M119.7,28.2c2.1,0,3.7,1.6,3.7,3.8s-1.6,3.8-3.7,3.8c-2.1,0-3.7-1.6-3.7-3.8C116,29.9,117.6,28.2,119.7,28.2z
	 M122.3,32c0-1.5-1.2-2.8-2.7-2.8c-1.5,0-2.7,1.2-2.7,2.8c0,1.5,1.2,2.8,2.7,2.8S122.3,33.6,122.3,32L122.3,32z"/>
<path class="st0" d="M124.8,28.4h1.1v0.9c0.6-0.7,1.4-1,2.3-1c1.6,0,2.8,1.1,2.8,2.8v4.6h-1v-4.4c0-1.3-0.8-2.1-2.1-2.1
	c-0.9,0-1.5,0.4-2,1.1v5.2h-1.1L124.8,28.4L124.8,28.4z"/>
<path class="st0" d="M133.4,29.3h-1.5v-0.9h1.5v-1.8l1-0.3v2.1h2.2v0.9h-2.2v4.5c0,0.8,0.3,1.1,1.1,1.1c0.3,0,0.7-0.1,1-0.2v0.9
	c-0.4,0.2-0.9,0.2-1.3,0.2c-1.3,0-2-0.6-2-1.7L133.4,29.3z"/>
<path class="st0" d="M137.4,33.6c0-1.4,1.1-2.2,2.9-2.2c0.8,0,1.5,0.2,2.1,0.5V31c0-1.2-0.7-1.7-1.9-1.7c-0.7,0-1.4,0.2-2.3,0.6
	l-0.4-0.9c1-0.5,1.9-0.7,2.8-0.7c1.8,0,2.8,0.9,2.8,2.5v4.8h-1v-0.7c-0.7,0.6-1.5,0.9-2.3,0.9C138.5,35.8,137.4,34.9,137.4,33.6z
	 M140.2,34.9c0.9,0,1.5-0.3,2.1-0.9v-1.4c-0.6-0.4-1.3-0.6-2.1-0.6c-1.2,0-1.9,0.6-1.9,1.4C138.4,34.4,139.2,34.9,140.2,34.9
	L140.2,34.9z"/>
<path class="st0" d="M145.1,26.3c0-0.4,0.3-0.7,0.7-0.7c0.4,0,0.7,0.3,0.7,0.7l0,0c0,0.4-0.3,0.7-0.7,0.7
	C145.4,27,145.1,26.7,145.1,26.3z M146.3,35.6h-1v-7.3h1.1L146.3,35.6L146.3,35.6z"/>
<path class="st0" d="M148.2,28.4h1v0.9c0.6-0.7,1.4-1,2.3-1c1.6,0,2.8,1.1,2.8,2.8v4.6h-1v-4.4c0-1.3-0.8-2.1-2.1-2.1
	c-0.9,0-1.5,0.4-2,1.1v5.2h-1L148.2,28.4z"/>
<path class="st0" d="M159.5,35.8c-2.1,0-3.7-1.6-3.8-3.7V32c0-2.1,1.5-3.8,3.6-3.8c1.9,0,3.4,1.6,3.4,3.8v0.3h-5.9
	c0.2,1.5,1.3,2.5,2.7,2.5c0.8,0,1.5-0.3,2-0.7l0.7,0.7C161.5,35.5,160.5,35.8,159.5,35.8z M156.9,31.5h4.9c-0.2-1.3-1.2-2.3-2.4-2.3
	C158.1,29.2,157.1,30.1,156.9,31.5L156.9,31.5z"/>
<path class="st0" d="M164.3,28.4h1.1v1c0.4-0.8,1.2-1.2,2.1-1.2c0.3,0,0.4,0,0.7,0.1v0.9c-0.3-0.1-0.5-0.1-0.8-0.2
	c-0.9,0-1.5,0.5-2,1.5v5.1h-1.1V28.4z"/>
<path class="st0" d="M172.7,25.5h4.4c2,0,3.3,1.2,3.3,2.9c0,1.8-1.3,2.9-3.3,2.9h-3.3v4.3h-1.1V25.5z M173.8,26.5v3.9h3.2
	c1.4,0,2.2-0.8,2.2-2c0-1.2-0.9-2-2.2-2L173.8,26.5z"/>
<path class="st0" d="M182.9,35.6h-1V25.5l1-0.3V35.6z"/>
<path class="st0" d="M184.3,33.6c0-1.4,1.1-2.2,2.9-2.2c0.8,0,1.5,0.2,2.1,0.5V31c0-1.2-0.7-1.7-1.9-1.7c-0.7,0-1.4,0.2-2.3,0.6
	l-0.4-0.9c1-0.5,1.9-0.7,2.8-0.7c1.8,0,2.8,0.9,2.8,2.5v4.8h-1v-0.7c-0.7,0.6-1.5,0.9-2.3,0.9C185.4,35.8,184.3,34.9,184.3,33.6z
	 M187.2,34.9c0.9,0,1.5-0.3,2.1-0.9v-1.4c-0.6-0.4-1.3-0.6-2.1-0.6c-1.2,0-1.9,0.6-1.9,1.4C185.4,34.4,186.1,34.9,187.2,34.9
	L187.2,34.9z"/>
<path class="st0" d="M192.8,29.3h-1.5v-0.9h1.5v-1.8l1-0.3v2.1h2.2v0.9h-2.2v4.5c0,0.8,0.3,1.1,1.1,1.1c0.3,0,0.7-0.1,1-0.2v0.9
	c-0.4,0.2-0.9,0.2-1.3,0.2c-1.3,0-2-0.6-2-1.7L192.8,29.3z"/>
<path class="st0" d="M198.4,28.4V27c0-1.5,0.8-2.2,2.2-2.2c0.3,0,0.7,0,0.9,0.2v0.9c-0.3-0.1-0.6-0.2-0.9-0.2
	c-0.9,0-1.3,0.4-1.3,1.3v1.4h2.1v0.9h-2.1v6.3h-1v-6.3h-1.7v-0.9L198.4,28.4z"/>
<path class="st0" d="M205.8,28.2c2.1,0,3.7,1.6,3.7,3.8s-1.6,3.8-3.7,3.8s-3.7-1.6-3.7-3.8C202.1,29.9,203.7,28.2,205.8,28.2z
	 M208.4,32c0-1.5-1.2-2.8-2.7-2.8s-2.7,1.2-2.7,2.8c0,1.5,1.2,2.8,2.7,2.8S208.4,33.6,208.4,32L208.4,32z"/>
<path class="st0" d="M210.9,28.4h1v1c0.4-0.8,1.2-1.2,2.1-1.2c0.3,0,0.4,0,0.7,0.1v0.9c-0.3-0.1-0.5-0.1-0.8-0.2
	c-0.9,0-1.5,0.5-2,1.5v5.1h-1V28.4z"/>
<path class="st0" d="M216,28.4h1.1v0.8c0.5-0.6,1.3-0.9,2.1-0.9c0.9,0,1.8,0.5,2.3,1.3c0.5-0.9,1.5-1.4,2.5-1.3
	c1.5,0,2.7,1.1,2.7,2.8v4.6h-1v-4.4c0-1.3-0.7-2.1-1.9-2.1c-0.8,0-1.5,0.4-1.9,1.2c0.1,0.3,0.1,0.4,0.1,0.7v4.6h-1.2v-4.4
	c0-1.3-0.7-2.1-1.9-2.1c-0.8,0-1.4,0.3-1.9,1v5.2h-1.1L216,28.4L216,28.4z"/>
<path class="st0" d="M83.3,18.2c0,1.6,1,2.5,2.8,2.5c0.6,0,1.1-0.1,1.6-0.3v-1.9c-0.3,0.1-0.7,0.2-1,0.2c-0.8,0-1-0.3-1-0.9v-2.9
	h2.1v-2h-2.1v-2.5l-2.4,0.5v2h-1.5v2h1.5C83.3,14.8,83.3,18.2,83.3,18.2z M75.9,18.3c0-0.5,0.5-0.8,1.3-0.8c0.5,0,0.9,0.1,1.4,0.2v1
	C78.1,19,77.6,19,77.1,19C76.4,19,75.9,18.7,75.9,18.3 M76.7,20.7c0.9,0,1.5-0.2,2.1-0.6v0.4h2.3v-5c0-1.9-1.3-2.9-3.4-2.9
	c-1.2,0-2.4,0.3-3.6,0.9l0.9,1.7c0.9-0.3,1.7-0.6,2.3-0.6c0.9,0,1.5,0.3,1.5,1.2v0.3c-0.6-0.2-1.2-0.3-1.8-0.3c-2,0-3.2,0.9-3.2,2.3
	C73.9,19.6,75,20.7,76.7,20.7 M63.8,20.6h2.5v-4h4.2v4H73V10.3h-2.5v3.9h-4.2v-3.9h-2.5V20.6z M54.2,16.6c0-1.1,0.9-2,2.1-2
	c0.6,0,1.2,0.2,1.6,0.6V18c-0.4,0.4-1,0.6-1.6,0.6C55.1,18.6,54.2,17.8,54.2,16.6 M57.9,20.6h2.3V9.8l-2.4,0.5v2.9
	c-0.6-0.3-1.3-0.5-2-0.5c-2.2,0-4,1.7-4,3.9c0,2.1,1.7,3.9,3.9,3.9h0.1c0.8,0,1.5-0.3,2.1-0.7L57.9,20.6z M47.1,14.6
	c0.8,0,1.4,0.5,1.6,1.2h-3.3C45.7,15,46.3,14.6,47.1,14.6 M43.2,16.6c0,2.2,1.9,4,4.2,4c1.3,0,2.2-0.3,3.3-1.2l-1.5-1.4
	c-0.3,0.3-0.9,0.6-1.5,0.6c-0.9,0-1.5-0.4-1.9-1.2h5.5v-0.6c0-2.5-1.6-4.2-3.9-4.2C45,12.7,43.2,14.4,43.2,16.6
	C43.2,16.6,43.2,16.6,43.2,16.6 M39,12.4c0.9,0,1.3,0.5,1.3,1.2c0,0.6-0.4,1.2-1.3,1.2h-2.5v-2.4H39z M34.1,20.6h2.5v-3.8h1.9l2,3.8
	h2.8L41,16.5c1.2-0.5,2-1.6,2-2.9c0-1.9-1.5-3.3-3.6-3.3h-5.2L34.1,20.6z"/>
<path class="st1" d="M12.7,14.2L9,15.6c0.1,0.6,0.2,1.2,0.3,1.8l3.5-1.3C12.7,15.4,12.7,14.8,12.7,14.2"/>
<path class="st1" d="M29.2,10.1c-0.3-0.5-0.6-1-0.9-1.5L24.5,10c0.4,0.4,0.8,0.9,1.1,1.5L29.2,10.1z"/>
<path class="st2" d="M20.9,9.1c0.8,0.3,1.5,0.9,2,1.5l3.7-1.4c-3.4-4.8-10-5.9-14.8-2.5c-2.9,2.1-4.5,5.7-4.3,9.4l3.7-1.4
	c0.3-3.8,3.6-6.6,7.4-6.3C19.4,8.5,20.2,8.7,20.9,9.1"/>
<path class="st2" d="M9.5,17.2L6,18.5c0.3,1.3,0.9,2.5,1.6,3.6l3.7-1.4C10.4,19.8,9.8,18.5,9.5,17.2"/>
<path class="st2" d="M24.9,15.9c-0.1,0.9-0.3,1.6-0.6,2.4c-1.6,3.4-5.7,5-9.2,3.3c-0.8-0.3-1.5-0.9-2-1.5l-3.7,1.4
	c1,1.5,2.5,2.7,4.1,3.4c5.3,2.5,11.7,0.2,14.2-5.1c0.8-1.6,1.1-3.5,0.9-5.3L24.9,15.9z"/>
<path class="st2" d="M25.8,11.3l-3.5,1.3c0.7,1.2,0.9,2.6,0.9,3.9l3.7-1.4C26.8,13.8,26.4,12.5,25.8,11.3"/>
<path class="st3" d="M12.7,14.9c0-0.3,0-0.5,0-0.8L9,15.5c0,0.3,0.1,0.5,0.1,0.7L12.7,14.9z"/>
<path class="st3" d="M28.6,9.1c-0.1-0.2-0.3-0.3-0.3-0.6l-3.7,1.4c0.2,0.2,0.3,0.3,0.4,0.5L28.6,9.1z"/>
<path class="st1" d="M9.4,21.5c0.3,0.4,0.6,0.8,0.9,1.1l4-1.5c-0.4-0.3-0.9-0.6-1.3-1L9.4,21.5z M28.7,14.5l-3.8,1.4
	c0,0.5-0.2,1.1-0.3,1.6l4-1.5C28.7,15.4,28.7,15,28.7,14.5"/>
<rect x="243.1" y="21.9" class="st0" width="0.9" height="17.3"/>
<g>
	<path class="st0" d="M265.3,34.2c0.6,0,1.3-0.1,1.8-0.3c0.6-0.3,1.1-0.6,1.5-1l0.8,0.8c-0.5,0.5-1.1,0.9-1.9,1.3
		c-0.7,0.3-1.5,0.4-2.2,0.4s-1.5-0.2-2.1-0.4c-0.7-0.3-1.2-0.7-1.7-1.1c-0.5-0.4-0.9-1-1.1-1.7c-0.3-0.7-0.4-1.4-0.4-2.1
		s0.2-1.5,0.4-2.1c0.3-0.7,0.7-1.2,1.1-1.7c0.5-0.5,1-0.9,1.7-1.1c0.7-0.3,1.4-0.4,2.1-0.4s1.5,0.2,2.3,0.4c0.7,0.3,1.4,0.7,1.8,1.3
		l-0.8,0.8c-0.4-0.4-0.9-0.8-1.5-1.1c-0.6-0.3-1.2-0.4-1.9-0.4c-0.6,0-1.1,0.1-1.7,0.3c-0.6,0.3-0.9,0.5-1.4,0.9
		c-0.3,0.3-0.7,0.9-0.9,1.4c-0.3,0.5-0.3,1.1-0.3,1.7c0,0.6,0.1,1.2,0.3,1.7c0.3,0.5,0.5,0.9,0.9,1.4c0.3,0.4,0.9,0.7,1.4,0.9
		C264,34.1,264.7,34.2,265.3,34.2z"/>
	<path class="st0" d="M272,24.4v10.7h-1.1V24.7L272,24.4z"/>
	<path class="st0" d="M274.9,27.6V32c0,0.7,0.2,1.2,0.6,1.5c0.3,0.4,0.9,0.6,1.5,0.6c0.4,0,0.9-0.1,1.2-0.3c0.3-0.2,0.7-0.5,0.9-0.9
		v-5.5h1.1V35h-1.1v-0.9c-0.3,0.3-0.6,0.6-1,0.8c-0.4,0.2-0.9,0.3-1.3,0.3c-0.9,0-1.5-0.3-2.1-0.8c-0.5-0.5-0.8-1.2-0.8-2.1v-4.7
		L274.9,27.6L274.9,27.6z"/>
	<path class="st0" d="M281.3,34l0.7-0.7c0.3,0.3,0.7,0.5,1.1,0.7c0.4,0.2,0.9,0.3,1.3,0.3c0.6,0,1.1-0.2,1.5-0.4
		c0.3-0.3,0.5-0.6,0.5-0.9s-0.1-0.6-0.3-0.8c-0.3-0.2-0.6-0.3-1-0.3l-1.3-0.2c-0.7-0.1-1.3-0.3-1.6-0.7s-0.6-0.8-0.6-1.4
		c0-0.6,0.3-1.1,0.8-1.5s1.2-0.6,2-0.6c0.5,0,1,0.1,1.5,0.3c0.5,0.2,0.9,0.4,1.4,0.8l-0.6,0.8c-0.4-0.3-0.8-0.5-1.2-0.6
		c-0.4-0.1-0.8-0.3-1.2-0.3c-0.5,0-0.9,0.1-1.2,0.3c-0.3,0.3-0.5,0.5-0.5,0.9c0,0.3,0.1,0.6,0.3,0.8c0.3,0.2,0.6,0.3,1,0.3l1.3,0.2
		c0.8,0.1,1.3,0.3,1.7,0.7c0.4,0.3,0.6,0.8,0.6,1.4s-0.3,1.2-0.9,1.6c-0.6,0.4-1.3,0.7-2.1,0.7c-0.6,0-1.2-0.1-1.7-0.3
		C282.1,34.7,281.7,34.4,281.3,34z"/>
	<path class="st0" d="M289.5,33.4v-4.9h-1.6v-0.9h1.6v-1.9l1.1-0.3v2.1h2.2v0.9h-2.2v4.5c0,0.4,0.1,0.7,0.3,0.9
		c0.2,0.2,0.5,0.3,0.9,0.3c0.3,0,0.4,0,0.6-0.1c0.2,0,0.3-0.1,0.5-0.2v0.9c-0.2,0.1-0.4,0.1-0.7,0.2c-0.3,0-0.4,0.1-0.7,0.1
		c-0.7,0-1.1-0.2-1.5-0.4C289.7,34.4,289.5,33.9,289.5,33.4z"/>
	<path class="st0" d="M293.5,31.3c0-0.5,0.1-1,0.3-1.5s0.4-0.9,0.8-1.2s0.7-0.6,1.2-0.9c0.4-0.2,0.9-0.3,1.5-0.3s0.9,0.1,1.4,0.3
		c0.4,0.2,0.8,0.5,1.1,0.9s0.6,0.8,0.8,1.2s0.3,0.9,0.3,1.5v0.3h-6.2c0.1,0.8,0.3,1.4,0.9,1.8c0.5,0.5,1.1,0.8,1.9,0.8
		c0.4,0,0.8-0.1,1.1-0.2s0.7-0.3,0.9-0.5l0.7,0.8c-0.4,0.3-0.9,0.5-1.3,0.7s-0.9,0.3-1.5,0.3c-0.5,0-1-0.1-1.5-0.3s-0.9-0.4-1.2-0.9
		c-0.3-0.4-0.6-0.8-0.8-1.2C293.5,32.4,293.5,31.9,293.5,31.3z M297.1,28.4c-0.7,0-1.2,0.3-1.7,0.7c-0.4,0.4-0.8,1-0.9,1.6h5
		c-0.1-0.7-0.3-1.2-0.9-1.6C298.3,28.7,297.7,28.4,297.1,28.4z"/>
	<path class="st0" d="M302.1,35v-7.5h1.1v1c0.3-0.4,0.6-0.7,0.9-0.9s0.8-0.3,1.1-0.3c0.2,0,0.3,0,0.4,0c0.1,0,0.2,0.1,0.3,0.1v1
		c-0.1,0-0.3-0.1-0.3-0.1c-0.2,0-0.3-0.1-0.4-0.1c-0.4,0-0.8,0.1-1.1,0.3s-0.7,0.6-0.9,1.2V35H302.1z"/>
	<path class="st0" d="M309.7,35l4.4-10.5h1.4l4.3,10.5h-1.3l-1.3-3.3h-4.9L311,35H309.7z M312.6,30.8h4.1l-2.1-5.1L312.6,30.8z"/>
	<path class="st0" d="M320.7,38.1V27.6h1.1v0.8c0.3-0.3,0.7-0.5,1.1-0.7c0.4-0.2,0.9-0.3,1.3-0.3c0.5,0,1,0.1,1.5,0.3
		c0.4,0.2,0.9,0.5,1.2,0.9c0.3,0.3,0.6,0.8,0.8,1.2c0.2,0.4,0.3,0.9,0.3,1.5c0,0.5-0.1,1-0.3,1.5c-0.2,0.5-0.4,0.9-0.8,1.2
		s-0.8,0.6-1.2,0.9c-0.4,0.2-0.9,0.3-1.5,0.3c-0.4,0-0.9-0.1-1.3-0.3c-0.4-0.2-0.8-0.3-1.1-0.6V38L320.7,38.1L320.7,38.1z
		 M324.1,28.4c-0.5,0-0.9,0.1-1.3,0.3c-0.4,0.2-0.7,0.4-0.9,0.8v3.7c0.3,0.3,0.6,0.5,0.9,0.8c0.3,0.3,0.9,0.3,1.3,0.3
		s0.8-0.1,1.1-0.3c0.3-0.2,0.6-0.3,0.9-0.6s0.4-0.5,0.6-0.9c0.2-0.3,0.2-0.8,0.2-1.1c0-0.3-0.1-0.8-0.3-1.1s-0.3-0.7-0.6-0.9
		c-0.3-0.3-0.5-0.4-0.9-0.6C324.9,28.5,324.4,28.4,324.1,28.4z"/>
	<path class="st0" d="M329.5,38.1V27.6h1.1v0.8c0.3-0.3,0.7-0.5,1.1-0.7c0.4-0.2,0.9-0.3,1.3-0.3c0.5,0,1,0.1,1.5,0.3
		s0.9,0.5,1.2,0.9c0.3,0.3,0.6,0.8,0.8,1.2c0.2,0.4,0.3,0.9,0.3,1.5c0,0.5-0.1,1-0.3,1.5c-0.2,0.5-0.4,0.9-0.8,1.2s-0.8,0.6-1.2,0.9
		c-0.4,0.2-0.9,0.3-1.5,0.3c-0.4,0-0.9-0.1-1.3-0.3c-0.4-0.2-0.8-0.3-1.1-0.6V38L329.5,38.1L329.5,38.1z M332.8,28.4
		c-0.5,0-0.9,0.1-1.3,0.3c-0.4,0.2-0.7,0.4-0.9,0.8v3.7c0.3,0.3,0.6,0.5,0.9,0.8c0.3,0.3,0.9,0.3,1.3,0.3s0.8-0.1,1.1-0.3
		c0.3-0.2,0.6-0.3,0.9-0.6s0.4-0.5,0.6-0.9c0.2-0.3,0.2-0.8,0.2-1.1c0-0.3-0.1-0.8-0.3-1.1s-0.3-0.7-0.6-0.9
		c-0.3-0.3-0.5-0.4-0.9-0.6C333.6,28.5,333.3,28.4,332.8,28.4z"/>
	<path class="st0" d="M339.4,24.4v10.7h-1.1V24.7L339.4,24.4z"/>
	<path class="st0" d="M341.8,26.1c-0.2,0-0.3-0.1-0.5-0.3c-0.2-0.2-0.3-0.3-0.3-0.5c0-0.2,0.1-0.3,0.3-0.5c0.2-0.2,0.3-0.3,0.5-0.3
		c0.2,0,0.3,0.1,0.5,0.3c0.2,0.2,0.3,0.3,0.3,0.5c0,0.2-0.1,0.3-0.3,0.5C342.1,26.1,341.9,26.1,341.8,26.1z M342.3,27.6V35h-1.1
		v-7.5C341.2,27.6,342.3,27.6,342.3,27.6z"/>
	<path class="st0" d="M347.7,34.2c0.4,0,0.8-0.1,1.2-0.3c0.4-0.2,0.7-0.4,1-0.7l0.7,0.8c-0.4,0.3-0.9,0.7-1.4,0.9
		c-0.5,0.2-1,0.3-1.5,0.3s-1-0.1-1.5-0.3s-0.9-0.4-1.2-0.9c-0.3-0.4-0.6-0.8-0.8-1.2c-0.2-0.4-0.3-0.9-0.3-1.5c0-0.5,0.1-1,0.3-1.5
		c0.2-0.5,0.4-0.9,0.8-1.2c0.3-0.3,0.8-0.6,1.2-0.9c0.4-0.2,0.9-0.3,1.5-0.3c0.5,0,1,0.1,1.5,0.3c0.5,0.2,0.9,0.5,1.4,0.9l-0.7,0.8
		c-0.3-0.3-0.6-0.5-1-0.7c-0.4-0.2-0.8-0.3-1.2-0.3c-0.3,0-0.8,0.1-1.1,0.3c-0.3,0.2-0.6,0.3-0.9,0.6c-0.3,0.3-0.4,0.6-0.6,0.9
		c-0.2,0.3-0.2,0.7-0.2,1.1c0,0.4,0.1,0.8,0.3,1.1c0.2,0.3,0.3,0.7,0.6,0.9c0.3,0.3,0.5,0.4,0.9,0.6
		C346.9,34.1,347.2,34.2,347.7,34.2z"/>
	<path class="st0" d="M354.2,35.2c-0.8,0-1.5-0.2-2-0.6c-0.5-0.4-0.8-0.9-0.8-1.6c0-0.3,0.1-0.7,0.3-1c0.2-0.3,0.3-0.5,0.6-0.7
		c0.3-0.2,0.6-0.3,0.9-0.4c0.3-0.1,0.8-0.2,1.2-0.2c0.4,0,0.8,0.1,1.1,0.2c0.3,0.1,0.7,0.2,1,0.3v-0.9c0-0.6-0.2-1-0.5-1.4
		s-0.9-0.4-1.5-0.4c-0.3,0-0.8,0.1-1.1,0.2c-0.3,0.1-0.8,0.3-1.2,0.5l-0.4-0.9c0.5-0.3,0.9-0.4,1.5-0.5c0.4-0.2,0.9-0.2,1.5-0.2
		c0.9,0,1.6,0.3,2.1,0.7c0.5,0.4,0.8,1.1,0.8,1.9v5.1h-1.1v-0.8c-0.3,0.3-0.7,0.5-1.1,0.6C355.1,35.1,354.7,35.2,354.2,35.2z
		 M352.5,32.9c0,0.4,0.2,0.8,0.5,1s0.8,0.4,1.4,0.4c0.4,0,0.9-0.1,1.2-0.3c0.3-0.2,0.7-0.3,0.9-0.6V32c-0.3-0.2-0.6-0.3-0.9-0.4
		c-0.3-0.1-0.8-0.2-1.2-0.2c-0.6,0-1,0.2-1.4,0.4S352.5,32.5,352.5,32.9z"/>
	<path class="st0" d="M360.2,33.4v-4.9h-1.6v-0.9h1.6v-1.9l1.1-0.3v2.1h2.2v0.9h-2.2v4.5c0,0.4,0.1,0.7,0.3,0.9
		c0.2,0.2,0.5,0.3,0.9,0.3c0.3,0,0.4,0,0.6-0.1s0.3-0.1,0.5-0.2v0.9c-0.2,0.1-0.4,0.1-0.7,0.2c-0.3,0-0.4,0.1-0.7,0.1
		c-0.7,0-1.1-0.2-1.5-0.4C360.4,34.4,360.2,33.9,360.2,33.4z"/>
	<path class="st0" d="M365.3,26.1c-0.2,0-0.3-0.1-0.5-0.3c-0.2-0.2-0.3-0.3-0.3-0.5c0-0.2,0.1-0.3,0.3-0.5c0.2-0.2,0.3-0.3,0.5-0.3
		c0.2,0,0.3,0.1,0.5,0.3c0.2,0.2,0.3,0.3,0.3,0.5c0,0.2-0.1,0.3-0.3,0.5C365.6,26,365.4,26.1,365.3,26.1z M365.8,27.6V35h-1.1v-7.5
		C364.7,27.6,365.8,27.6,365.8,27.6z"/>
	<path class="st0" d="M367.3,31.3c0-0.5,0.1-1,0.3-1.5c0.2-0.5,0.4-0.9,0.8-1.2s0.8-0.6,1.2-0.9c0.4-0.2,0.9-0.3,1.5-0.3
		c0.5,0,1,0.1,1.5,0.3c0.4,0.2,0.9,0.5,1.2,0.9s0.6,0.8,0.8,1.2c0.2,0.5,0.3,0.9,0.3,1.5c0,0.5-0.1,1-0.3,1.5
		c-0.2,0.5-0.4,0.9-0.8,1.2s-0.8,0.6-1.2,0.9c-0.4,0.2-0.9,0.3-1.5,0.3c-0.5,0-1-0.1-1.5-0.3s-0.9-0.5-1.2-0.9s-0.6-0.8-0.8-1.2
		C367.4,32.4,367.3,31.9,367.3,31.3z M373.8,31.3c0-0.4-0.1-0.8-0.2-1.1c-0.2-0.3-0.3-0.7-0.6-0.9c-0.3-0.3-0.5-0.4-0.9-0.6
		c-0.3-0.2-0.7-0.3-1-0.3s-0.8,0.1-1,0.3c-0.3,0.2-0.6,0.3-0.9,0.6s-0.4,0.6-0.6,0.9c-0.2,0.3-0.3,0.8-0.3,1.1
		c0,0.4,0.1,0.8,0.2,1.1c0.2,0.3,0.3,0.7,0.6,0.9c0.3,0.3,0.5,0.4,0.9,0.6c0.3,0.2,0.7,0.3,1.1,0.3s0.8-0.1,1-0.3
		c0.3-0.2,0.6-0.3,0.9-0.6c0.3-0.3,0.4-0.6,0.6-0.9C373.7,32.1,373.8,31.7,373.8,31.3z"/>
	<path class="st0" d="M376.4,35v-7.5h1.1v0.9c0.3-0.3,0.6-0.6,1-0.8c0.4-0.2,0.9-0.3,1.3-0.3c0.9,0,1.5,0.3,2.1,0.8
		c0.5,0.5,0.8,1.2,0.8,2.1v4.7h-1.1v-4.5c0-0.7-0.2-1.2-0.6-1.5c-0.3-0.4-0.9-0.6-1.5-0.6c-0.4,0-0.9,0.1-1.2,0.3
		c-0.3,0.2-0.7,0.5-0.9,0.9v5.5L376.4,35L376.4,35z"/>
	<path class="st0" d="M393.2,34.3l-4.1-8.4V35H388V24.7h1.6l3.6,7.4l3.5-7.4h1.6v10.5h-1.1v-9.2L393.2,34.3z"/>
	<path class="st0" d="M401,26.1c-0.2,0-0.3-0.1-0.5-0.3c-0.2-0.2-0.3-0.3-0.3-0.5c0-0.2,0.1-0.3,0.3-0.5c0.2-0.2,0.3-0.3,0.5-0.3
		s0.3,0.1,0.5,0.3c0.2,0.2,0.3,0.3,0.3,0.5c0,0.2-0.1,0.3-0.3,0.5C401.4,26,401.2,26.1,401,26.1z M401.5,27.6V35h-1.1v-7.5
		C400.4,27.6,401.5,27.6,401.5,27.6z"/>
	<path class="st0" d="M406.8,35.1c-0.5,0-1-0.1-1.5-0.3c-0.4-0.2-0.9-0.4-1.2-0.8s-0.6-0.8-0.8-1.2c-0.2-0.4-0.3-0.9-0.3-1.5
		c0-0.5,0.1-1,0.3-1.5c0.2-0.5,0.4-0.9,0.8-1.2s0.8-0.6,1.2-0.8c0.4-0.2,0.9-0.3,1.5-0.3c0.4,0,0.9,0.1,1.3,0.3
		c0.4,0.2,0.8,0.3,1.1,0.7v-0.8h1.1v7.5c0,0.9-0.3,1.7-0.9,2.2c-0.6,0.5-1.4,0.8-2.4,0.8c-0.5,0-1-0.1-1.5-0.2
		c-0.5-0.2-0.9-0.3-1.4-0.6l0.5-0.9c0.4,0.3,0.9,0.4,1.2,0.5c0.4,0.1,0.8,0.2,1.2,0.2c0.7,0,1.2-0.2,1.6-0.5
		c0.3-0.3,0.5-0.9,0.5-1.5v-0.9c-0.3,0.3-0.7,0.5-1.1,0.6C407.7,35,407.3,35.1,406.8,35.1z M404.2,31.3c0,0.4,0.1,0.8,0.2,1.1
		c0.2,0.3,0.3,0.7,0.6,0.9c0.3,0.3,0.5,0.4,0.9,0.6s0.7,0.3,1.1,0.3c0.5,0,0.9-0.1,1.3-0.3c0.4-0.2,0.7-0.4,0.9-0.8v-3.7
		c-0.3-0.3-0.6-0.5-0.9-0.8c-0.4-0.2-0.9-0.3-1.3-0.3c-0.4,0-0.8,0.1-1.1,0.3s-0.6,0.3-0.9,0.6c-0.3,0.3-0.4,0.6-0.6,0.9
		C404.2,30.5,404.2,30.9,404.2,31.3z"/>
	<path class="st0" d="M412.1,35v-7.5h1.1v1c0.3-0.4,0.6-0.7,0.9-0.9s0.8-0.3,1.1-0.3c0.2,0,0.3,0,0.4,0c0.1,0,0.2,0.1,0.3,0.1v1
		c-0.1,0-0.3-0.1-0.3-0.1c-0.2,0-0.3-0.1-0.4-0.1c-0.4,0-0.8,0.1-1.1,0.3s-0.7,0.6-0.9,1.2V35H412.1z"/>
	<path class="st0" d="M419.3,35.2c-0.8,0-1.5-0.2-2-0.6c-0.5-0.4-0.8-0.9-0.8-1.6c0-0.3,0.1-0.7,0.3-1c0.2-0.3,0.3-0.5,0.6-0.7
		c0.3-0.2,0.6-0.3,0.9-0.4c0.3-0.1,0.8-0.2,1.2-0.2s0.8,0.1,1.1,0.2c0.3,0.1,0.7,0.2,1,0.3v-0.9c0-0.6-0.2-1-0.5-1.4
		s-0.9-0.4-1.5-0.4c-0.3,0-0.8,0.1-1.1,0.2c-0.3,0.1-0.8,0.3-1.2,0.5l-0.4-0.9c0.5-0.3,0.9-0.4,1.5-0.5c0.4-0.2,0.9-0.2,1.5-0.2
		c0.9,0,1.6,0.3,2.1,0.7c0.5,0.4,0.8,1.1,0.8,1.9v5.1h-1.1v-0.8c-0.3,0.3-0.7,0.5-1.1,0.6C420.2,35.1,419.8,35.2,419.3,35.2z
		 M417.6,32.9c0,0.4,0.2,0.8,0.5,1s0.8,0.4,1.4,0.4c0.4,0,0.9-0.1,1.2-0.3c0.3-0.2,0.7-0.3,0.9-0.6V32c-0.3-0.2-0.6-0.3-0.9-0.4
		c-0.3-0.1-0.8-0.2-1.2-0.2c-0.6,0-1,0.2-1.4,0.4S417.6,32.5,417.6,32.9z"/>
	<path class="st0" d="M425.3,33.4v-4.9h-1.6v-0.9h1.6v-1.9l1.1-0.3v2.1h2.2v0.9h-2.2v4.5c0,0.4,0.1,0.7,0.3,0.9
		c0.2,0.2,0.5,0.3,0.9,0.3c0.3,0,0.4,0,0.6-0.1c0.2-0.1,0.3-0.1,0.5-0.2v0.9c-0.2,0.1-0.4,0.1-0.7,0.2c-0.3,0-0.4,0.1-0.7,0.1
		c-0.7,0-1.1-0.2-1.5-0.4C425.5,34.4,425.3,33.9,425.3,33.4z"/>
	<path class="st0" d="M430.4,26.1c-0.2,0-0.3-0.1-0.5-0.3c-0.2-0.2-0.3-0.3-0.3-0.5c0-0.2,0.1-0.3,0.3-0.5c0.2-0.2,0.3-0.3,0.5-0.3
		c0.2,0,0.3,0.1,0.5,0.3c0.2,0.2,0.3,0.3,0.3,0.5c0,0.2-0.1,0.3-0.3,0.5C430.7,26,430.5,26.1,430.4,26.1z M430.9,27.6V35h-1.1v-7.5
		C429.8,27.6,430.9,27.6,430.9,27.6z"/>
	<path class="st0" d="M432.4,31.3c0-0.5,0.1-1,0.3-1.5c0.2-0.5,0.4-0.9,0.8-1.2s0.8-0.6,1.2-0.9c0.4-0.2,0.9-0.3,1.5-0.3
		c0.5,0,1,0.1,1.5,0.3c0.4,0.2,0.9,0.5,1.2,0.9s0.6,0.8,0.8,1.2c0.2,0.5,0.3,0.9,0.3,1.5c0,0.5-0.1,1-0.3,1.5
		c-0.2,0.5-0.4,0.9-0.8,1.2s-0.8,0.6-1.2,0.9c-0.4,0.2-0.9,0.3-1.5,0.3c-0.5,0-1-0.1-1.5-0.3c-0.4-0.2-0.9-0.5-1.2-0.9
		s-0.6-0.8-0.8-1.2C432.5,32.4,432.4,31.9,432.4,31.3z M438.9,31.3c0-0.4-0.1-0.8-0.2-1.1c-0.2-0.3-0.3-0.7-0.6-0.9
		c-0.3-0.3-0.5-0.4-0.9-0.6c-0.3-0.2-0.7-0.3-1-0.3c-0.3,0-0.8,0.1-1,0.3c-0.3,0.2-0.6,0.3-0.9,0.6c-0.3,0.3-0.4,0.6-0.6,0.9
		c-0.2,0.3-0.3,0.8-0.3,1.1c0,0.4,0.1,0.8,0.2,1.1c0.2,0.3,0.3,0.7,0.6,0.9c0.3,0.3,0.5,0.4,0.9,0.6s0.7,0.3,1.1,0.3
		c0.4,0,0.8-0.1,1-0.3c0.3-0.2,0.6-0.3,0.9-0.6c0.3-0.3,0.4-0.6,0.6-0.9C438.8,32.1,438.9,31.7,438.9,31.3z"/>
	<path class="st0" d="M441.5,35v-7.5h1.1v0.9c0.3-0.3,0.6-0.6,1-0.8c0.4-0.2,0.9-0.3,1.3-0.3c0.9,0,1.5,0.3,2.1,0.8
		c0.5,0.5,0.8,1.2,0.8,2.1v4.7h-1.1v-4.5c0-0.7-0.2-1.2-0.6-1.5c-0.3-0.4-0.9-0.6-1.5-0.6c-0.4,0-0.9,0.1-1.2,0.3
		c-0.3,0.2-0.7,0.5-0.9,0.9v5.5L441.5,35L441.5,35z"/>
	<path class="st0" d="M452.2,25.7v-1h8.7v1h-3.8v9.4H456v-9.4H452.2z"/>
	<path class="st0" d="M460,31.3c0-0.5,0.1-1,0.3-1.5c0.2-0.5,0.4-0.9,0.8-1.2s0.8-0.6,1.2-0.9c0.4-0.2,0.9-0.3,1.5-0.3
		s1,0.1,1.5,0.3c0.4,0.2,0.9,0.5,1.2,0.9c0.3,0.3,0.6,0.8,0.8,1.2c0.2,0.5,0.3,0.9,0.3,1.5c0,0.5-0.1,1-0.3,1.5
		c-0.2,0.5-0.4,0.9-0.8,1.2c-0.3,0.3-0.8,0.6-1.2,0.9c-0.4,0.2-0.9,0.3-1.5,0.3s-1-0.1-1.5-0.3c-0.4-0.2-0.9-0.5-1.2-0.9
		s-0.6-0.8-0.8-1.2C460.1,32.4,460,31.9,460,31.3z M466.5,31.3c0-0.4-0.1-0.8-0.2-1.1c-0.2-0.3-0.3-0.7-0.6-0.9
		c-0.3-0.3-0.5-0.4-0.9-0.6c-0.3-0.2-0.7-0.3-1-0.3s-0.8,0.1-1,0.3c-0.3,0.2-0.6,0.3-0.9,0.6c-0.3,0.3-0.4,0.6-0.6,0.9
		c-0.2,0.3-0.3,0.8-0.3,1.1c0,0.4,0.1,0.8,0.2,1.1c0.2,0.3,0.3,0.7,0.6,0.9c0.3,0.3,0.5,0.4,0.9,0.6s0.7,0.3,1.1,0.3
		c0.4,0,0.8-0.1,1-0.3c0.3-0.2,0.6-0.3,0.9-0.6s0.4-0.6,0.6-0.9C466.5,32.1,466.5,31.7,466.5,31.3z"/>
	<path class="st0" d="M468.9,31.3c0-0.5,0.1-1,0.3-1.5c0.2-0.5,0.4-0.9,0.8-1.2s0.8-0.6,1.2-0.9c0.4-0.2,0.9-0.3,1.5-0.3
		c0.5,0,1,0.1,1.5,0.3c0.4,0.2,0.9,0.5,1.2,0.9s0.6,0.8,0.8,1.2c0.2,0.5,0.3,0.9,0.3,1.5c0,0.5-0.1,1-0.3,1.5
		c-0.2,0.5-0.4,0.9-0.8,1.2s-0.8,0.6-1.2,0.9c-0.4,0.2-0.9,0.3-1.5,0.3c-0.5,0-1-0.1-1.5-0.3s-0.9-0.5-1.2-0.9s-0.6-0.8-0.8-1.2
		C469,32.4,468.9,31.9,468.9,31.3z M475.4,31.3c0-0.4-0.1-0.8-0.2-1.1c-0.2-0.3-0.3-0.7-0.6-0.9c-0.3-0.3-0.5-0.4-0.9-0.6
		c-0.3-0.2-0.7-0.3-1-0.3s-0.8,0.1-1,0.3c-0.3,0.2-0.6,0.3-0.9,0.6s-0.4,0.6-0.6,0.9S470,31,470,31.3c0,0.4,0.1,0.8,0.2,1.1
		c0.2,0.3,0.3,0.7,0.6,0.9c0.3,0.3,0.5,0.4,0.9,0.6s0.7,0.3,1.1,0.3c0.4,0,0.8-0.1,1-0.3c0.3-0.2,0.6-0.3,0.9-0.6
		c0.3-0.3,0.4-0.6,0.6-0.9C475.3,32.1,475.4,31.7,475.4,31.3z"/>
	<path class="st0" d="M479.1,24.4v10.7H478V24.7L479.1,24.4z"/>
</g>
</svg>
